<?xml version="1.0" encoding="utf-8"?>
<svg xmlns="http://www.w3.org/2000/svg" xmlns:xlink="http://www.w3.org/1999/xlink" style="background: none; display: block; position: relative; shape-rendering: auto;" width="181" height="181" preserveAspectRatio="xMidYMid" viewBox="0 0 181 181"><g transform="scale(0.71)">


<defs><g id="id-0.4179562467196516"><!--Generator: Adobe Illustrator 21.0.0, SVG Export Plug-In . SVG Version: 6.00 Build 0)--><style type="text/css">.st26{fill:#acbd81}.st78{fill:#c7c7c6}.st80,.st87{stroke-miterlimit:10}.st80{stroke-linecap:round;stroke:#fff;fill:#acbd81;stroke-width:2}.st87{fill:none;stroke:#849b87;stroke-width:4.5679}</style><g><path class="st78" d="M47.5,53.4c-2-0.8-3.8-2-5.3-3.7c-1.5-1.7-2.6-4-2.9-6.4c-0.4-2.4-0.1-4.8,0.5-7.1c0.6-2.2,1.6-4.3,2.7-6.2 c1.8-3.2,3.3-6.4,3.6-9.6c0.2-1.6,0-3.3-0.6-5.1c-0.5-1.8-1.5-3.5-2.6-5.3c2,0.7,3.8,2,5.3,3.7c1.5,1.7,2.6,4,2.9,6.4 c0.4,2.4,0.1,4.8-0.5,7.1c-0.6,2.2-1.6,4.3-2.7,6.2c-1.8,3.2-3.4,6.4-3.7,9.6c-0.2,1.6,0,3.3,0.6,5.1 C45.5,49.8,46.4,51.6,47.5,53.4z" data-fill="c1" style="fill: rgb(199, 199, 198);"></path></g><g><path class="st78" d="M29.9,52.3c-1.7-0.3-3.4-0.9-4.9-2.1c-1.5-1.1-2.8-2.9-3.3-5.1c-0.5-2.2-0.1-4.4,0.6-6.2 c0.7-1.9,1.7-3.5,2.8-4.9c1.7-2.3,3.1-4.4,3.4-6.5c0.1-1.1-0.1-2.3-0.7-3.6c-0.6-1.3-1.5-2.7-2.5-4.1c1.7,0.3,3.4,0.9,4.9,2.1 c1.5,1.1,2.8,2.9,3.3,5.1c0.5,2.2,0.1,4.4-0.6,6.2c-0.7,1.9-1.7,3.5-2.8,4.9c-1.8,2.3-3.1,4.4-3.4,6.5c-0.1,1.1,0.1,2.3,0.7,3.6 C28,49.5,28.9,50.8,29.9,52.3z" data-fill="c1" style="fill: rgb(199, 199, 198);"></path></g><g><path class="st78" d="M65.1,52.3c-1.7-0.3-3.4-0.9-4.9-2.1c-1.5-1.1-2.8-2.9-3.3-5.1c-0.5-2.2-0.1-4.4,0.6-6.2 c0.7-1.9,1.7-3.5,2.8-4.9c1.7-2.3,3.1-4.4,3.4-6.5c0.1-1.1-0.1-2.3-0.7-3.6c-0.6-1.3-1.5-2.7-2.5-4.1c1.7,0.3,3.4,0.9,4.9,2.1 c1.5,1.1,2.8,2.9,3.3,5.1c0.5,2.2,0.1,4.4-0.6,6.2c-0.7,1.9-1.7,3.5-2.8,4.9c-1.8,2.3-3.1,4.4-3.4,6.5c-0.1,1.1,0.1,2.3,0.7,3.6 C63.2,49.5,64.1,50.8,65.1,52.3z" data-fill="c1" style="fill: rgb(199, 199, 198);"></path></g><g><path class="st87" d="M51.9,65.7h22.5c4.6,0,8.3,3.7,8.3,8.3v0.5c0,4.6-3.7,8.3-8.3,8.3H51.9" data-stroke="c2" style="stroke: rgb(132, 155, 135);"></path><path class="st26" d="M52.6,90H37.8c-11.3,0-20.5-9.2-20.5-20.5V60c0-0.8,0.6-1.4,1.4-1.4h53c0.8,0,1.4,0.6,1.4,1.4v9.5 C73.1,80.8,63.9,90,52.6,90z" data-fill="c3" style="fill: rgb(172, 189, 129);"></path><path class="st80" d="M22.3,71.3c-0.4-1.7-0.7-3.5-0.7-5.4v-3.6" data-fill="c3" data-stroke="c4" style="fill: rgb(172, 189, 129); stroke: rgb(255, 255, 255);"></path><path class="st80" d="M25.1,77.8c-0.4-0.6-0.7-1.2-1-1.8" data-fill="c3" data-stroke="c4" style="fill: rgb(172, 189, 129); stroke: rgb(255, 255, 255);"></path></g><metadata xmlns:d="https://loading.io/stock/"><d:name>soup</d:name><d:tags>soup,hot,coffee,chowder,broth,drink,food,cup</d:tags><d:license>by</d:license><d:slug>2bv43k</d:slug></metadata></g></defs>

<!-- Generator: Adobe Illustrator 21.0.0, SVG Export Plug-In . SVG Version: 6.00 Build 0)  -->



















<g data-idx="0" data-dup="" dx="-128" dy="-128" style="transform-origin: -58.5047px 39.4938px; animation: 10s linear 0s infinite normal forwards running clock-8ed29839-a21f-474a-9a57-738e33abe3b0;"><g transform="translate(-128,-128)"><ellipse transform="matrix(0.7249 -0.6888 0.6888 0.7249 -96.2592 93.9447)" fill="#B3B4B4" cx="69.5" cy="167.5" rx="5.5" ry="5.5" data-fill="c5" style="fill: rgb(179, 180, 180);"></ellipse></g></g><g data-idx="0" data-dup="" dx="128" dy="-128" style="transform-origin: 197.495px 39.4938px; animation: 10s linear 0s infinite normal forwards running clock-8ed29839-a21f-474a-9a57-738e33abe3b0;"><g transform="translate(128,-128)"><ellipse transform="matrix(0.7249 -0.6888 0.6888 0.7249 -96.2592 93.9447)" fill="#B3B4B4" cx="69.5" cy="167.5" rx="5.5" ry="5.5" data-fill="c5" style="fill: rgb(179, 180, 180);"></ellipse></g></g><g data-idx="1" data-dup="" dx="-128" dy="-128" style="transform-origin: 111.489px -55.5005px; animation: 10s linear 0s infinite normal forwards running clock-8ed29839-a21f-474a-9a57-738e33abe3b0;"><g transform="translate(-128,-128)"><ellipse transform="matrix(0.7249 -0.6888 0.6888 0.7249 15.9378 184.9119)" fill="#B3B4B4" cx="239.5" cy="72.5" rx="5.5" ry="5.5" data-fill="c5" style="fill: rgb(179, 180, 180);"></ellipse></g></g><g data-idx="1" data-dup="" dx="128" dy="-128" style="transform-origin: 367.489px -55.5005px; animation: 10s linear 0s infinite normal forwards running clock-8ed29839-a21f-474a-9a57-738e33abe3b0;"><g transform="translate(128,-128)"><ellipse transform="matrix(0.7249 -0.6888 0.6888 0.7249 15.9378 184.9119)" fill="#B3B4B4" cx="239.5" cy="72.5" rx="5.5" ry="5.5" data-fill="c5" style="fill: rgb(179, 180, 180);"></ellipse></g></g><g data-idx="2" data-dup="" dx="-128" dy="-128" style="transform-origin: 73.5px -2.5px; animation: 10s linear 0s infinite normal forwards running clock-8ed29839-a21f-474a-9a57-738e33abe3b0;"><g transform="translate(-128,-128)"><g>
	
		<line fill="none" stroke="#B3B4B5" stroke-width="4" stroke-linecap="round" stroke-linejoin="round" stroke-miterlimit="10" x1="194" y1="125.5" x2="209" y2="125.5" data-stroke="c6" style="stroke: rgb(179, 180, 181);"></line>
	
		<line fill="none" stroke="#B3B4B5" stroke-width="4" stroke-linecap="round" stroke-linejoin="round" stroke-miterlimit="10" x1="201.5" y1="133" x2="201.5" y2="118" data-stroke="c6" style="stroke: rgb(179, 180, 181);"></line>
</g></g></g><g data-idx="2" data-dup="" dx="128" dy="-128" style="transform-origin: 329.5px -2.5px; animation: 10s linear 0s infinite normal forwards running clock-8ed29839-a21f-474a-9a57-738e33abe3b0;"><g transform="translate(128,-128)"><g>
	
		<line fill="none" stroke="#B3B4B5" stroke-width="4" stroke-linecap="round" stroke-linejoin="round" stroke-miterlimit="10" x1="194" y1="125.5" x2="209" y2="125.5" data-stroke="c6" style="stroke: rgb(179, 180, 181);"></line>
	
		<line fill="none" stroke="#B3B4B5" stroke-width="4" stroke-linecap="round" stroke-linejoin="round" stroke-miterlimit="10" x1="201.5" y1="133" x2="201.5" y2="118" data-stroke="c6" style="stroke: rgb(179, 180, 181);"></line>
</g></g></g><g data-idx="3" data-dup="" dx="-128" dy="-128" style="transform-origin: 64px 116px; animation: 10s linear 0s infinite normal forwards running clock-8ed29839-a21f-474a-9a57-738e33abe3b0;"><g transform="translate(-128,-128)"><g>
	
		<line fill="none" stroke="#B3B4B5" stroke-width="4" stroke-linecap="round" stroke-linejoin="round" stroke-miterlimit="10" x1="186" y1="244" x2="198" y2="244" data-stroke="c6" style="stroke: rgb(179, 180, 181);"></line>
	
		<line fill="none" stroke="#B3B4B5" stroke-width="4" stroke-linecap="round" stroke-linejoin="round" stroke-miterlimit="10" x1="192" y1="250" x2="192" y2="238" data-stroke="c6" style="stroke: rgb(179, 180, 181);"></line>
</g></g></g><g data-idx="3" data-dup="" dx="128" dy="-128" style="transform-origin: 320px 116px; animation: 10s linear 0s infinite normal forwards running clock-8ed29839-a21f-474a-9a57-738e33abe3b0;"><g transform="translate(128,-128)"><g>
	
		<line fill="none" stroke="#B3B4B5" stroke-width="4" stroke-linecap="round" stroke-linejoin="round" stroke-miterlimit="10" x1="186" y1="244" x2="198" y2="244" data-stroke="c6" style="stroke: rgb(179, 180, 181);"></line>
	
		<line fill="none" stroke="#B3B4B5" stroke-width="4" stroke-linecap="round" stroke-linejoin="round" stroke-miterlimit="10" x1="192" y1="250" x2="192" y2="238" data-stroke="c6" style="stroke: rgb(179, 180, 181);"></line>
</g></g></g><g data-idx="4" data-dup="" dx="-128" dy="-128" style="transform-origin: -107.5px -81.5px; animation: 10s linear 0s infinite normal forwards running clock-8ed29839-a21f-474a-9a57-738e33abe3b0;"><g transform="translate(-128,-128)"><g>
	
		<line fill="none" stroke="#B3B4B5" stroke-width="4" stroke-linecap="round" stroke-linejoin="round" stroke-miterlimit="10" x1="12" y1="46.5" x2="29" y2="46.5" data-stroke="c6" style="stroke: rgb(179, 180, 181);"></line>
	
		<line fill="none" stroke="#B3B4B5" stroke-width="4" stroke-linecap="round" stroke-linejoin="round" stroke-miterlimit="10" x1="20.5" y1="55" x2="20.5" y2="38" data-stroke="c6" style="stroke: rgb(179, 180, 181);"></line>
</g></g></g><g data-idx="4" data-dup="" dx="128" dy="-128" style="transform-origin: 148.5px -81.5px; animation: 10s linear 0s infinite normal forwards running clock-8ed29839-a21f-474a-9a57-738e33abe3b0;"><g transform="translate(128,-128)"><g>
	
		<line fill="none" stroke="#B3B4B5" stroke-width="4" stroke-linecap="round" stroke-linejoin="round" stroke-miterlimit="10" x1="12" y1="46.5" x2="29" y2="46.5" data-stroke="c6" style="stroke: rgb(179, 180, 181);"></line>
	
		<line fill="none" stroke="#B3B4B5" stroke-width="4" stroke-linecap="round" stroke-linejoin="round" stroke-miterlimit="10" x1="20.5" y1="55" x2="20.5" y2="38" data-stroke="c6" style="stroke: rgb(179, 180, 181);"></line>
</g></g></g><g data-idx="5" data-dup="" dx="-128" dy="-128" style="transform-origin: 9.52531px -55.8316px; animation: 10s linear 0s infinite normal forwards running clock-8ed29839-a21f-474a-9a57-738e33abe3b0;"><g transform="translate(-128,-128)"><ellipse transform="matrix(0.4903 -0.8715 0.8715 0.4903 7.2038 156.6452)" fill="#B3B4B4" cx="137.531" cy="72.163" rx="6.525" ry="6.525" data-fill="c5" style="fill: rgb(179, 180, 180);"></ellipse></g></g><g data-idx="5" data-dup="" dx="128" dy="-128" style="transform-origin: 265.525px -55.8316px; animation: 10s linear 0s infinite normal forwards running clock-8ed29839-a21f-474a-9a57-738e33abe3b0;"><g transform="translate(128,-128)"><ellipse transform="matrix(0.4903 -0.8715 0.8715 0.4903 7.2038 156.6452)" fill="#B3B4B4" cx="137.531" cy="72.163" rx="6.525" ry="6.525" data-fill="c5" style="fill: rgb(179, 180, 180);"></ellipse></g></g><g data-idx="6" data-dup="" dx="-128" dy="-128" style="transform-origin: 15.4918px 88.4925px; animation: 10s linear 0s infinite normal forwards running clock-8ed29839-a21f-474a-9a57-738e33abe3b0;"><g transform="translate(-128,-128)"><ellipse transform="matrix(0.7249 -0.6888 0.6888 0.7249 -109.6566 158.3945)" fill="#B3B4B4" cx="143.5" cy="216.5" rx="5.5" ry="5.5" data-fill="c5" style="fill: rgb(179, 180, 180);"></ellipse></g></g><g data-idx="6" data-dup="" dx="128" dy="-128" style="transform-origin: 271.492px 88.4925px; animation: 10s linear 0s infinite normal forwards running clock-8ed29839-a21f-474a-9a57-738e33abe3b0;"><g transform="translate(128,-128)"><ellipse transform="matrix(0.7249 -0.6888 0.6888 0.7249 -109.6566 158.3945)" fill="#B3B4B4" cx="143.5" cy="216.5" rx="5.5" ry="5.5" data-fill="c5" style="fill: rgb(179, 180, 180);"></ellipse></g></g><g data-idx="7" data-dup="" dx="-128" dy="-128" style="transform-origin: -37.0041px -92.0005px; animation: 10s linear 0s infinite normal forwards running clock-8ed29839-a21f-474a-9a57-738e33abe3b0;"><g transform="translate(-128,-128)"><ellipse transform="matrix(0.7249 -0.6888 0.6888 0.7249 0.2332 72.5839)" fill="#B3B4B4" cx="91" cy="36" rx="4" ry="4" data-fill="c5" style="fill: rgb(179, 180, 180);"></ellipse></g></g><g data-idx="7" data-dup="" dx="128" dy="-128" style="transform-origin: 218.996px -92.0005px; animation: 10s linear 0s infinite normal forwards running clock-8ed29839-a21f-474a-9a57-738e33abe3b0;"><g transform="translate(128,-128)"><ellipse transform="matrix(0.7249 -0.6888 0.6888 0.7249 0.2332 72.5839)" fill="#B3B4B4" cx="91" cy="36" rx="4" ry="4" data-fill="c5" style="fill: rgb(179, 180, 180);"></ellipse></g></g><g data-idx="8" data-dup="" dx="-128" dy="-128" style="transform-origin: 120.988px 20.9965px; animation: 10s linear 0s infinite normal forwards running clock-8ed29839-a21f-474a-9a57-738e33abe3b0;"><g transform="translate(-128,-128)"><ellipse transform="matrix(0.7249 -0.6888 0.6888 0.7249 -34.1432 212.4976)" fill="#B3B4B4" cx="249" cy="149" rx="4" ry="4" data-fill="c5" style="fill: rgb(179, 180, 180);"></ellipse></g></g><g data-idx="8" data-dup="" dx="128" dy="-128" style="transform-origin: 376.988px 20.9965px; animation: 10s linear 0s infinite normal forwards running clock-8ed29839-a21f-474a-9a57-738e33abe3b0;"><g transform="translate(128,-128)"><ellipse transform="matrix(0.7249 -0.6888 0.6888 0.7249 -34.1432 212.4976)" fill="#B3B4B4" cx="249" cy="149" rx="4" ry="4" data-fill="c5" style="fill: rgb(179, 180, 180);"></ellipse></g></g><g data-idx="9" data-dup="" dx="-128" dy="-128" style="transform-origin: -121.003px 111.99px; animation: 10s linear 0s infinite normal forwards running clock-8ed29839-a21f-474a-9a57-738e33abe3b0;"><g transform="translate(-128,-128)"><ellipse transform="matrix(0.7249 -0.6888 0.6888 0.7249 -163.3891 70.8358)" fill="#B3B4B4" cx="7" cy="240" rx="4" ry="4" data-fill="c5" style="fill: rgb(179, 180, 180);"></ellipse></g></g><g data-idx="9" data-dup="" dx="128" dy="-128" style="transform-origin: 134.997px 111.99px; animation: 10s linear 0s infinite normal forwards running clock-8ed29839-a21f-474a-9a57-738e33abe3b0;"><g transform="translate(128,-128)"><ellipse transform="matrix(0.7249 -0.6888 0.6888 0.7249 -163.3891 70.8358)" fill="#B3B4B4" cx="7" cy="240" rx="4" ry="4" data-fill="c5" style="fill: rgb(179, 180, 180);"></ellipse></g></g><g data-idx="10" data-dup="" dx="-128" dy="-128" style="transform-origin: 5.00677px 10.9986px; animation: 10s linear 0s infinite normal forwards running clock-8ed29839-a21f-474a-9a57-738e33abe3b0;"><g transform="translate(-128,-128)"><g transform="matrix(0.9912 0.1325 -0.1325 0.9912 19.5946 -16.4002) translate(133,138.9995) scale(0.6222222222222222)"><g data-icon="" transform="scale(0.9)">  <use xlink:href="#id-0.4179562467196516" x="-50" y="-50"></use>
</g></g></g></g><g data-idx="10" data-dup="" dx="128" dy="-128" style="transform-origin: 261.007px 10.9986px; animation: 10s linear 0s infinite normal forwards running clock-8ed29839-a21f-474a-9a57-738e33abe3b0;"><g transform="translate(128,-128)"><g transform="matrix(0.9912 0.1325 -0.1325 0.9912 19.5946 -16.4002) translate(133,138.9995) scale(0.6222222222222222)"><g data-icon="" transform="scale(0.9)">  <use xlink:href="#id-0.4179562467196516" x="-50" y="-50"></use>
</g></g></g></g><g data-idx="11" data-dup="" dx="-128" dy="-128" style="transform-origin: 57.082px -85.7235px; animation: 10s linear 0s infinite normal forwards running clock-8ed29839-a21f-474a-9a57-738e33abe3b0;"><g transform="translate(-128,-128)"><g transform="matrix(0.8102 -0.5862 0.5862 0.8102 10.3558 116.5189) translate(185.074,42.271) scale(0.3916444444444444)"><g data-icon="" transform="scale(0.9)">  <use xlink:href="#id-0.4179562467196516" x="-50" y="-50"></use>
</g></g></g></g><g data-idx="11" data-dup="" dx="128" dy="-128" style="transform-origin: 313.082px -85.7235px; animation: 10s linear 0s infinite normal forwards running clock-8ed29839-a21f-474a-9a57-738e33abe3b0;"><g transform="translate(128,-128)"><g transform="matrix(0.8102 -0.5862 0.5862 0.8102 10.3558 116.5189) translate(185.074,42.271) scale(0.3916444444444444)"><g data-icon="" transform="scale(0.9)">  <use xlink:href="#id-0.4179562467196516" x="-50" y="-50"></use>
</g></g></g></g><g data-idx="12" data-dup="" dx="-128" dy="-128" style="transform-origin: 96.7127px 65.4146px; animation: 10s linear 0s infinite normal forwards running clock-8ed29839-a21f-474a-9a57-738e33abe3b0;"><g transform="translate(-128,-128)"><g transform="matrix(0.7153 0.6988 -0.6988 0.7153 199.1367 -101.9661) translate(224.712,193.41799999999998) scale(0.3647555555555556)"><g data-icon="" transform="scale(0.9)">  <use xlink:href="#id-0.4179562467196516" x="-50" y="-50"></use>
</g></g></g></g><g data-idx="12" data-dup="" dx="128" dy="-128" style="transform-origin: 352.713px 65.4146px; animation: 10s linear 0s infinite normal forwards running clock-8ed29839-a21f-474a-9a57-738e33abe3b0;"><g transform="translate(128,-128)"><g transform="matrix(0.7153 0.6988 -0.6988 0.7153 199.1367 -101.9661) translate(224.712,193.41799999999998) scale(0.3647555555555556)"><g data-icon="" transform="scale(0.9)">  <use xlink:href="#id-0.4179562467196516" x="-50" y="-50"></use>
</g></g></g></g><g data-idx="13" data-dup="" dx="-128" dy="-128" style="transform-origin: -81.3936px -21.2786px; animation: 10s linear 0s infinite normal forwards running clock-8ed29839-a21f-474a-9a57-738e33abe3b0;"><g transform="translate(-128,-128)"><g transform="matrix(0.7812 0.6242 -0.6242 0.7812 76.8196 -5.7423) translate(46.602000000000004,106.7265) scale(0.3879111111111111)"><g data-icon="" transform="scale(0.9)">  <use xlink:href="#id-0.4179562467196516" x="-50" y="-50"></use>
</g></g></g></g><g data-idx="13" data-dup="" dx="128" dy="-128" style="transform-origin: 174.606px -21.2786px; animation: 10s linear 0s infinite normal forwards running clock-8ed29839-a21f-474a-9a57-738e33abe3b0;"><g transform="translate(128,-128)"><g transform="matrix(0.7812 0.6242 -0.6242 0.7812 76.8196 -5.7423) translate(46.602000000000004,106.7265) scale(0.3879111111111111)"><g data-icon="" transform="scale(0.9)">  <use xlink:href="#id-0.4179562467196516" x="-50" y="-50"></use>
</g></g></g></g><g data-idx="14" data-dup="" dx="-128" dy="-128" style="transform-origin: -58.7991px 101.632px; animation: 10s linear 0s infinite normal forwards running clock-8ed29839-a21f-474a-9a57-738e33abe3b0;"><g transform="translate(-128,-128)"><g transform="matrix(0.7381 -0.6747 0.6747 0.7381 -136.8065 106.8361) translate(69.2025,229.6265) scale(0.5011777777777778)"><g data-icon="" transform="scale(0.9)">  <use xlink:href="#id-0.4179562467196516" x="-50" y="-50"></use>
</g></g></g></g><g data-idx="14" data-dup="" dx="128" dy="-128" style="transform-origin: 197.201px 101.632px; animation: 10s linear 0s infinite normal forwards running clock-8ed29839-a21f-474a-9a57-738e33abe3b0;"><g transform="translate(128,-128)"><g transform="matrix(0.7381 -0.6747 0.6747 0.7381 -136.8065 106.8361) translate(69.2025,229.6265) scale(0.5011777777777778)"><g data-icon="" transform="scale(0.9)">  <use xlink:href="#id-0.4179562467196516" x="-50" y="-50"></use>
</g></g></g></g><g data-idx="0" data-dup="" dx="-128" dy="128" style="transform-origin: -58.5047px 295.494px; animation: 10s linear 0s infinite normal forwards running clock-8ed29839-a21f-474a-9a57-738e33abe3b0;"><g transform="translate(-128,128)"><ellipse transform="matrix(0.7249 -0.6888 0.6888 0.7249 -96.2592 93.9447)" fill="#B3B4B4" cx="69.5" cy="167.5" rx="5.5" ry="5.5" data-fill="c5" style="fill: rgb(179, 180, 180);"></ellipse></g></g><g data-idx="0" data-dup="" dx="128" dy="128" style="transform-origin: 197.495px 295.494px; animation: 10s linear 0s infinite normal forwards running clock-8ed29839-a21f-474a-9a57-738e33abe3b0;"><g transform="translate(128,128)"><ellipse transform="matrix(0.7249 -0.6888 0.6888 0.7249 -96.2592 93.9447)" fill="#B3B4B4" cx="69.5" cy="167.5" rx="5.5" ry="5.5" data-fill="c5" style="fill: rgb(179, 180, 180);"></ellipse></g></g><g data-idx="1" data-dup="" dx="-128" dy="128" style="transform-origin: 111.489px 200.5px; animation: 10s linear 0s infinite normal forwards running clock-8ed29839-a21f-474a-9a57-738e33abe3b0;"><g transform="translate(-128,128)"><ellipse transform="matrix(0.7249 -0.6888 0.6888 0.7249 15.9378 184.9119)" fill="#B3B4B4" cx="239.5" cy="72.5" rx="5.5" ry="5.5" data-fill="c5" style="fill: rgb(179, 180, 180);"></ellipse></g></g><g data-idx="1" data-dup="" dx="128" dy="128" style="transform-origin: 367.489px 200.5px; animation: 10s linear 0s infinite normal forwards running clock-8ed29839-a21f-474a-9a57-738e33abe3b0;"><g transform="translate(128,128)"><ellipse transform="matrix(0.7249 -0.6888 0.6888 0.7249 15.9378 184.9119)" fill="#B3B4B4" cx="239.5" cy="72.5" rx="5.5" ry="5.5" data-fill="c5" style="fill: rgb(179, 180, 180);"></ellipse></g></g><g data-idx="2" data-dup="" dx="-128" dy="128" style="transform-origin: 73.5px 253.5px; animation: 10s linear 0s infinite normal forwards running clock-8ed29839-a21f-474a-9a57-738e33abe3b0;"><g transform="translate(-128,128)"><g>
	
		<line fill="none" stroke="#B3B4B5" stroke-width="4" stroke-linecap="round" stroke-linejoin="round" stroke-miterlimit="10" x1="194" y1="125.5" x2="209" y2="125.5" data-stroke="c6" style="stroke: rgb(179, 180, 181);"></line>
	
		<line fill="none" stroke="#B3B4B5" stroke-width="4" stroke-linecap="round" stroke-linejoin="round" stroke-miterlimit="10" x1="201.5" y1="133" x2="201.5" y2="118" data-stroke="c6" style="stroke: rgb(179, 180, 181);"></line>
</g></g></g><g data-idx="2" data-dup="" dx="128" dy="128" style="transform-origin: 329.5px 253.5px; animation: 10s linear 0s infinite normal forwards running clock-8ed29839-a21f-474a-9a57-738e33abe3b0;"><g transform="translate(128,128)"><g>
	
		<line fill="none" stroke="#B3B4B5" stroke-width="4" stroke-linecap="round" stroke-linejoin="round" stroke-miterlimit="10" x1="194" y1="125.5" x2="209" y2="125.5" data-stroke="c6" style="stroke: rgb(179, 180, 181);"></line>
	
		<line fill="none" stroke="#B3B4B5" stroke-width="4" stroke-linecap="round" stroke-linejoin="round" stroke-miterlimit="10" x1="201.5" y1="133" x2="201.5" y2="118" data-stroke="c6" style="stroke: rgb(179, 180, 181);"></line>
</g></g></g><g data-idx="3" data-dup="" dx="-128" dy="128" style="transform-origin: 64px 372px; animation: 10s linear 0s infinite normal forwards running clock-8ed29839-a21f-474a-9a57-738e33abe3b0;"><g transform="translate(-128,128)"><g>
	
		<line fill="none" stroke="#B3B4B5" stroke-width="4" stroke-linecap="round" stroke-linejoin="round" stroke-miterlimit="10" x1="186" y1="244" x2="198" y2="244" data-stroke="c6" style="stroke: rgb(179, 180, 181);"></line>
	
		<line fill="none" stroke="#B3B4B5" stroke-width="4" stroke-linecap="round" stroke-linejoin="round" stroke-miterlimit="10" x1="192" y1="250" x2="192" y2="238" data-stroke="c6" style="stroke: rgb(179, 180, 181);"></line>
</g></g></g><g data-idx="3" data-dup="" dx="128" dy="128" style="transform-origin: 320px 372px; animation: 10s linear 0s infinite normal forwards running clock-8ed29839-a21f-474a-9a57-738e33abe3b0;"><g transform="translate(128,128)"><g>
	
		<line fill="none" stroke="#B3B4B5" stroke-width="4" stroke-linecap="round" stroke-linejoin="round" stroke-miterlimit="10" x1="186" y1="244" x2="198" y2="244" data-stroke="c6" style="stroke: rgb(179, 180, 181);"></line>
	
		<line fill="none" stroke="#B3B4B5" stroke-width="4" stroke-linecap="round" stroke-linejoin="round" stroke-miterlimit="10" x1="192" y1="250" x2="192" y2="238" data-stroke="c6" style="stroke: rgb(179, 180, 181);"></line>
</g></g></g><g data-idx="4" data-dup="" dx="-128" dy="128" style="transform-origin: -107.5px 174.5px; animation: 10s linear 0s infinite normal forwards running clock-8ed29839-a21f-474a-9a57-738e33abe3b0;"><g transform="translate(-128,128)"><g>
	
		<line fill="none" stroke="#B3B4B5" stroke-width="4" stroke-linecap="round" stroke-linejoin="round" stroke-miterlimit="10" x1="12" y1="46.5" x2="29" y2="46.5" data-stroke="c6" style="stroke: rgb(179, 180, 181);"></line>
	
		<line fill="none" stroke="#B3B4B5" stroke-width="4" stroke-linecap="round" stroke-linejoin="round" stroke-miterlimit="10" x1="20.5" y1="55" x2="20.5" y2="38" data-stroke="c6" style="stroke: rgb(179, 180, 181);"></line>
</g></g></g><g data-idx="4" data-dup="" dx="128" dy="128" style="transform-origin: 148.5px 174.5px; animation: 10s linear 0s infinite normal forwards running clock-8ed29839-a21f-474a-9a57-738e33abe3b0;"><g transform="translate(128,128)"><g>
	
		<line fill="none" stroke="#B3B4B5" stroke-width="4" stroke-linecap="round" stroke-linejoin="round" stroke-miterlimit="10" x1="12" y1="46.5" x2="29" y2="46.5" data-stroke="c6" style="stroke: rgb(179, 180, 181);"></line>
	
		<line fill="none" stroke="#B3B4B5" stroke-width="4" stroke-linecap="round" stroke-linejoin="round" stroke-miterlimit="10" x1="20.5" y1="55" x2="20.5" y2="38" data-stroke="c6" style="stroke: rgb(179, 180, 181);"></line>
</g></g></g><g data-idx="5" data-dup="" dx="-128" dy="128" style="transform-origin: 9.52531px 200.168px; animation: 10s linear 0s infinite normal forwards running clock-8ed29839-a21f-474a-9a57-738e33abe3b0;"><g transform="translate(-128,128)"><ellipse transform="matrix(0.4903 -0.8715 0.8715 0.4903 7.2038 156.6452)" fill="#B3B4B4" cx="137.531" cy="72.163" rx="6.525" ry="6.525" data-fill="c5" style="fill: rgb(179, 180, 180);"></ellipse></g></g><g data-idx="5" data-dup="" dx="128" dy="128" style="transform-origin: 265.525px 200.168px; animation: 10s linear 0s infinite normal forwards running clock-8ed29839-a21f-474a-9a57-738e33abe3b0;"><g transform="translate(128,128)"><ellipse transform="matrix(0.4903 -0.8715 0.8715 0.4903 7.2038 156.6452)" fill="#B3B4B4" cx="137.531" cy="72.163" rx="6.525" ry="6.525" data-fill="c5" style="fill: rgb(179, 180, 180);"></ellipse></g></g><g data-idx="6" data-dup="" dx="-128" dy="128" style="transform-origin: 15.4918px 344.493px; animation: 10s linear 0s infinite normal forwards running clock-8ed29839-a21f-474a-9a57-738e33abe3b0;"><g transform="translate(-128,128)"><ellipse transform="matrix(0.7249 -0.6888 0.6888 0.7249 -109.6566 158.3945)" fill="#B3B4B4" cx="143.5" cy="216.5" rx="5.5" ry="5.5" data-fill="c5" style="fill: rgb(179, 180, 180);"></ellipse></g></g><g data-idx="6" data-dup="" dx="128" dy="128" style="transform-origin: 271.492px 344.493px; animation: 10s linear 0s infinite normal forwards running clock-8ed29839-a21f-474a-9a57-738e33abe3b0;"><g transform="translate(128,128)"><ellipse transform="matrix(0.7249 -0.6888 0.6888 0.7249 -109.6566 158.3945)" fill="#B3B4B4" cx="143.5" cy="216.5" rx="5.5" ry="5.5" data-fill="c5" style="fill: rgb(179, 180, 180);"></ellipse></g></g><g data-idx="7" data-dup="" dx="-128" dy="128" style="transform-origin: -37.0041px 163.999px; animation: 10s linear 0s infinite normal forwards running clock-8ed29839-a21f-474a-9a57-738e33abe3b0;"><g transform="translate(-128,128)"><ellipse transform="matrix(0.7249 -0.6888 0.6888 0.7249 0.2332 72.5839)" fill="#B3B4B4" cx="91" cy="36" rx="4" ry="4" data-fill="c5" style="fill: rgb(179, 180, 180);"></ellipse></g></g><g data-idx="7" data-dup="" dx="128" dy="128" style="transform-origin: 218.996px 163.999px; animation: 10s linear 0s infinite normal forwards running clock-8ed29839-a21f-474a-9a57-738e33abe3b0;"><g transform="translate(128,128)"><ellipse transform="matrix(0.7249 -0.6888 0.6888 0.7249 0.2332 72.5839)" fill="#B3B4B4" cx="91" cy="36" rx="4" ry="4" data-fill="c5" style="fill: rgb(179, 180, 180);"></ellipse></g></g><g data-idx="8" data-dup="" dx="-128" dy="128" style="transform-origin: 120.988px 276.996px; animation: 10s linear 0s infinite normal forwards running clock-8ed29839-a21f-474a-9a57-738e33abe3b0;"><g transform="translate(-128,128)"><ellipse transform="matrix(0.7249 -0.6888 0.6888 0.7249 -34.1432 212.4976)" fill="#B3B4B4" cx="249" cy="149" rx="4" ry="4" data-fill="c5" style="fill: rgb(179, 180, 180);"></ellipse></g></g><g data-idx="8" data-dup="" dx="128" dy="128" style="transform-origin: 376.988px 276.996px; animation: 10s linear 0s infinite normal forwards running clock-8ed29839-a21f-474a-9a57-738e33abe3b0;"><g transform="translate(128,128)"><ellipse transform="matrix(0.7249 -0.6888 0.6888 0.7249 -34.1432 212.4976)" fill="#B3B4B4" cx="249" cy="149" rx="4" ry="4" data-fill="c5" style="fill: rgb(179, 180, 180);"></ellipse></g></g><g data-idx="9" data-dup="" dx="-128" dy="128" style="transform-origin: -121.003px 367.99px; animation: 10s linear 0s infinite normal forwards running clock-8ed29839-a21f-474a-9a57-738e33abe3b0;"><g transform="translate(-128,128)"><ellipse transform="matrix(0.7249 -0.6888 0.6888 0.7249 -163.3891 70.8358)" fill="#B3B4B4" cx="7" cy="240" rx="4" ry="4" data-fill="c5" style="fill: rgb(179, 180, 180);"></ellipse></g></g><g data-idx="9" data-dup="" dx="128" dy="128" style="transform-origin: 134.997px 367.99px; animation: 10s linear 0s infinite normal forwards running clock-8ed29839-a21f-474a-9a57-738e33abe3b0;"><g transform="translate(128,128)"><ellipse transform="matrix(0.7249 -0.6888 0.6888 0.7249 -163.3891 70.8358)" fill="#B3B4B4" cx="7" cy="240" rx="4" ry="4" data-fill="c5" style="fill: rgb(179, 180, 180);"></ellipse></g></g><g data-idx="10" data-dup="" dx="-128" dy="128" style="transform-origin: 5.00677px 266.999px; animation: 10s linear 0s infinite normal forwards running clock-8ed29839-a21f-474a-9a57-738e33abe3b0;"><g transform="translate(-128,128)"><g transform="matrix(0.9912 0.1325 -0.1325 0.9912 19.5946 -16.4002) translate(133,138.9995) scale(0.6222222222222222)"><g data-icon="" transform="scale(0.9)">  <use xlink:href="#id-0.4179562467196516" x="-50" y="-50"></use>
</g></g></g></g><g data-idx="10" data-dup="" dx="128" dy="128" style="transform-origin: 261.007px 266.999px; animation: 10s linear 0s infinite normal forwards running clock-8ed29839-a21f-474a-9a57-738e33abe3b0;"><g transform="translate(128,128)"><g transform="matrix(0.9912 0.1325 -0.1325 0.9912 19.5946 -16.4002) translate(133,138.9995) scale(0.6222222222222222)"><g data-icon="" transform="scale(0.9)">  <use xlink:href="#id-0.4179562467196516" x="-50" y="-50"></use>
</g></g></g></g><g data-idx="11" data-dup="" dx="-128" dy="128" style="transform-origin: 57.082px 170.276px; animation: 10s linear 0s infinite normal forwards running clock-8ed29839-a21f-474a-9a57-738e33abe3b0;"><g transform="translate(-128,128)"><g transform="matrix(0.8102 -0.5862 0.5862 0.8102 10.3558 116.5189) translate(185.074,42.271) scale(0.3916444444444444)"><g data-icon="" transform="scale(0.9)">  <use xlink:href="#id-0.4179562467196516" x="-50" y="-50"></use>
</g></g></g></g><g data-idx="11" data-dup="" dx="128" dy="128" style="transform-origin: 313.082px 170.276px; animation: 10s linear 0s infinite normal forwards running clock-8ed29839-a21f-474a-9a57-738e33abe3b0;"><g transform="translate(128,128)"><g transform="matrix(0.8102 -0.5862 0.5862 0.8102 10.3558 116.5189) translate(185.074,42.271) scale(0.3916444444444444)"><g data-icon="" transform="scale(0.9)">  <use xlink:href="#id-0.4179562467196516" x="-50" y="-50"></use>
</g></g></g></g><g data-idx="12" data-dup="" dx="-128" dy="128" style="transform-origin: 96.7127px 321.415px; animation: 10s linear 0s infinite normal forwards running clock-8ed29839-a21f-474a-9a57-738e33abe3b0;"><g transform="translate(-128,128)"><g transform="matrix(0.7153 0.6988 -0.6988 0.7153 199.1367 -101.9661) translate(224.712,193.41799999999998) scale(0.3647555555555556)"><g data-icon="" transform="scale(0.9)">  <use xlink:href="#id-0.4179562467196516" x="-50" y="-50"></use>
</g></g></g></g><g data-idx="12" data-dup="" dx="128" dy="128" style="transform-origin: 352.713px 321.415px; animation: 10s linear 0s infinite normal forwards running clock-8ed29839-a21f-474a-9a57-738e33abe3b0;"><g transform="translate(128,128)"><g transform="matrix(0.7153 0.6988 -0.6988 0.7153 199.1367 -101.9661) translate(224.712,193.41799999999998) scale(0.3647555555555556)"><g data-icon="" transform="scale(0.9)">  <use xlink:href="#id-0.4179562467196516" x="-50" y="-50"></use>
</g></g></g></g><g data-idx="13" data-dup="" dx="-128" dy="128" style="transform-origin: -81.3936px 234.721px; animation: 10s linear 0s infinite normal forwards running clock-8ed29839-a21f-474a-9a57-738e33abe3b0;"><g transform="translate(-128,128)"><g transform="matrix(0.7812 0.6242 -0.6242 0.7812 76.8196 -5.7423) translate(46.602000000000004,106.7265) scale(0.3879111111111111)"><g data-icon="" transform="scale(0.9)">  <use xlink:href="#id-0.4179562467196516" x="-50" y="-50"></use>
</g></g></g></g><g data-idx="13" data-dup="" dx="128" dy="128" style="transform-origin: 174.606px 234.721px; animation: 10s linear 0s infinite normal forwards running clock-8ed29839-a21f-474a-9a57-738e33abe3b0;"><g transform="translate(128,128)"><g transform="matrix(0.7812 0.6242 -0.6242 0.7812 76.8196 -5.7423) translate(46.602000000000004,106.7265) scale(0.3879111111111111)"><g data-icon="" transform="scale(0.9)">  <use xlink:href="#id-0.4179562467196516" x="-50" y="-50"></use>
</g></g></g></g><g data-idx="14" data-dup="" dx="-128" dy="128" style="transform-origin: -58.7991px 357.632px; animation: 10s linear 0s infinite normal forwards running clock-8ed29839-a21f-474a-9a57-738e33abe3b0;"><g transform="translate(-128,128)"><g transform="matrix(0.7381 -0.6747 0.6747 0.7381 -136.8065 106.8361) translate(69.2025,229.6265) scale(0.5011777777777778)"><g data-icon="" transform="scale(0.9)">  <use xlink:href="#id-0.4179562467196516" x="-50" y="-50"></use>
</g></g></g></g><g data-idx="14" data-dup="" dx="128" dy="128" style="transform-origin: 197.201px 357.632px; animation: 10s linear 0s infinite normal forwards running clock-8ed29839-a21f-474a-9a57-738e33abe3b0;"><g transform="translate(128,128)"><g transform="matrix(0.7381 -0.6747 0.6747 0.7381 -136.8065 106.8361) translate(69.2025,229.6265) scale(0.5011777777777778)"><g data-icon="" transform="scale(0.9)">  <use xlink:href="#id-0.4179562467196516" x="-50" y="-50"></use>
</g></g></g></g></g><style id="clock-8ed29839-a21f-474a-9a57-738e33abe3b0" data-anikit="">@keyframes clock-8ed29839-a21f-474a-9a57-738e33abe3b0 {
0% {
  animation-timing-function: cubic-bezier(0,0.7000000000000001,0.29999999999999993,1);
  transform: rotate(0deg);
}
8.33333% {
  animation-timing-function: cubic-bezier(0,0.7000000000000001,0.29999999999999993,1);
  transform: rotate(30deg);
}
16.66667% {
  animation-timing-function: cubic-bezier(0,0.7000000000000001,0.29999999999999993,1);
  transform: rotate(60deg);
}
25% {
  animation-timing-function: cubic-bezier(0,0.7000000000000001,0.29999999999999993,1);
  transform: rotate(90deg);
}
33.33333% {
  animation-timing-function: cubic-bezier(0,0.7000000000000001,0.29999999999999993,1);
  transform: rotate(120deg);
}
41.66667% {
  animation-timing-function: cubic-bezier(0,0.7000000000000001,0.29999999999999993,1);
  transform: rotate(150deg);
}
50% {
  animation-timing-function: cubic-bezier(0,0.7000000000000001,0.29999999999999993,1);
  transform: rotate(180deg);
}
58.33333% {
  animation-timing-function: cubic-bezier(0,0.7000000000000001,0.29999999999999993,1);
  transform: rotate(210deg);
}
66.66667% {
  animation-timing-function: cubic-bezier(0,0.7000000000000001,0.29999999999999993,1);
  transform: rotate(240deg);
}
75% {
  animation-timing-function: cubic-bezier(0,0.7000000000000001,0.29999999999999993,1);
  transform: rotate(270deg);
}
83.33333% {
  animation-timing-function: cubic-bezier(0,0.7000000000000001,0.29999999999999993,1);
  transform: rotate(300deg);
}
91.66667% {
  animation-timing-function: cubic-bezier(0,0.7000000000000001,0.29999999999999993,1);
  transform: rotate(330deg);
}
100% {
  animation-timing-function: cubic-bezier(0,0.7000000000000001,0.29999999999999993,1);
  transform: rotate(360deg);
}
}</style></svg>